<svg width="770" height="361" viewBox="0 0 770 361" fill="none" xmlns="http://www.w3.org/2000/svg">
<g clip-path="url(#clip0_125:39)">
<path opacity="0.071" d="M87.609 327.128L87.6086 327.128C55.1952 294.715 55.1952 242.162 87.6086 209.749L237.937 59.4202C270.351 27.0068 322.903 27.0068 355.316 59.4202L355.317 59.4205C387.73 91.8339 387.73 144.386 355.317 176.8L204.988 327.128C172.575 359.542 120.022 359.542 87.609 327.128Z" fill="#FF0000"/>
<path opacity="0.071" d="M560.982 134.585L560.982 134.584C528.568 102.171 528.568 49.6183 560.982 17.2049L711.31 -133.124C743.724 -165.537 796.276 -165.537 828.69 -133.124L828.69 -133.123C861.104 -100.71 861.104 -48.1573 828.69 -15.7439L678.362 134.585C645.948 166.998 593.396 166.998 560.982 134.585Z" fill="#FF0000"/>
</g>
<defs>
<clipPath id="clip0_125:39">
<rect width="770" height="360" fill="white" transform="translate(0 0.730469)"/>
</clipPath>
</defs>
</svg>
