<svg width="92" height="303" viewBox="0 0 92 303" fill="none" xmlns="http://www.w3.org/2000/svg">
<g clip-path="url(#clip0_120:8)">
<path opacity="0.071" d="M21.9201 78.1663C11.314 67.2142 13.2544 47.4534 26.2546 34.0292L86.5472 -28.2295C99.5473 -41.6535 118.684 -43.6574 129.29 -32.7053C139.897 -21.7533 137.956 -1.9923 124.956 11.4317L64.6631 73.6904C51.6631 87.1144 32.5264 89.1183 21.9201 78.1663Z" fill="#FF0000"/>
<path opacity="0.071" d="M63.2916 155.206H63.2915C56.7455 148.446 57.0746 137.147 64.0265 129.969L96.2682 96.6755C103.22 89.4969 114.162 89.1571 120.708 95.9167C127.254 102.676 126.925 113.975 119.974 121.154L87.7316 154.447C80.7797 161.625 69.8376 161.965 63.2916 155.206Z" fill="#FF0000"/>
</g>
<defs>
<clipPath id="clip0_120:8">
<rect width="92" height="303" fill="white"/>
</clipPath>
</defs>
</svg>
